<svg width="122" height="52" viewBox="0 0 122 52" fill="none" xmlns="http://www.w3.org/2000/svg">
<path fill-rule="evenodd" clip-rule="evenodd" d="M54.7002 30.8191H83.6942L71.2327 0H70.7274V3.6369H54.7002V13.1811H68.5703V16.8181H54.7002V30.8191ZM50.7891 30.8191V0H50.2974L37.8359 30.8191H50.7891Z" fill="#282828"/>
<path d="M0 51.6966V33.9055H12.0355V36.005H2.36087V41.5146H10.7334V43.6141H2.36087V51.6966H0Z" fill="#282828"/>
<path d="M12.4062 43.0314C12.4062 40.0784 13.2012 37.7685 14.7914 36.1019C16.3815 34.4271 18.434 33.5898 20.9491 33.5898C22.5961 33.5898 24.0807 33.9821 25.4031 34.7669C26.7255 35.5517 27.7315 36.648 28.4212 38.0557C29.1188 39.4554 29.4678 41.0452 29.4678 42.8251C29.4678 44.6293 29.1025 46.2434 28.3724 47.6673C27.6423 49.0913 26.6079 50.1713 25.2692 50.9075C23.9306 51.6357 22.4865 51.9998 20.9369 51.9998C19.2576 51.9998 17.7566 51.5953 16.4342 50.7862C15.1118 49.9772 14.1099 48.8728 13.4284 47.4732C12.7469 46.0735 12.4062 44.5929 12.4062 43.0314ZM14.84 43.0678C14.84 45.2118 15.4162 46.9027 16.5682 48.1406C17.7283 49.3703 19.1805 49.9852 20.9248 49.9852C22.7015 49.9852 24.1618 49.3623 25.3059 48.1163C26.4578 46.8704 27.0338 45.1026 27.0338 42.813C27.0338 41.3647 26.7863 40.1026 26.2914 39.0266C25.8046 37.9425 25.0867 37.1051 24.1375 36.5145C23.1964 35.9158 22.1377 35.6165 20.9612 35.6165C19.29 35.6165 17.85 36.1909 16.6412 37.3397C15.4405 38.4805 14.84 40.3898 14.84 43.0678Z" fill="#282828"/>
<path d="M28.5625 51.6966L35.4138 33.9055H37.9572L45.2589 51.6966H42.5695L40.4885 46.3083H33.0287L31.0693 51.6966H28.5625ZM33.7102 44.3909H39.7584L37.8964 39.4637C37.3285 37.967 36.9066 36.7372 36.6309 35.7744C36.4037 36.9151 36.0831 38.0479 35.6694 39.1724L33.7102 44.3909Z" fill="#282828"/>
<path d="M45.0781 51.6966V33.9055H48.6315L52.8544 46.5025C53.2438 47.6756 53.5277 48.5534 53.7062 49.1359C53.909 48.4887 54.2254 47.5381 54.6554 46.284L58.9269 33.9055H62.1031V51.6966H59.8274V36.806L54.6433 51.6966H52.5136L47.3538 36.5511V51.6966H45.0781Z" fill="#282828"/>
<path d="M63.9219 51.6966V33.9055H70.6516C71.8361 33.9055 72.7407 33.9622 73.3654 34.0754C74.2416 34.2211 74.9758 34.5001 75.5681 34.9128C76.1602 35.3173 76.6349 35.8877 76.9919 36.6239C77.3569 37.3601 77.5395 38.1692 77.5395 39.0511C77.5395 40.564 77.0568 41.8464 76.0913 42.8981C75.1258 43.9418 73.3816 44.4636 70.8584 44.4636H66.2828V51.6966H63.9219ZM66.2828 42.3642H70.895C72.4202 42.3642 73.5033 42.081 74.1442 41.5146C74.7851 40.9483 75.1056 40.1513 75.1056 39.1239C75.1056 38.3795 74.9149 37.7445 74.5337 37.2186C74.1604 36.6846 73.6655 36.3327 73.049 36.1628C72.6514 36.0576 71.9172 36.005 70.8463 36.005H66.2828V42.3642Z" fill="#282828"/>
<path d="M74.7422 51.6966L81.5936 33.9055H84.1371L91.4387 51.6966H88.7492L86.6682 46.3083H79.2084L77.2492 51.6966H74.7422ZM79.8899 44.3909H85.9381L84.0762 39.4637C83.5083 37.967 83.0864 36.7372 82.8106 35.7744C82.5834 36.9151 82.263 38.0479 81.8491 39.1724L79.8899 44.3909Z" fill="#282828"/>
<path d="M104.059 45.4588L106.42 46.0533C105.925 47.987 105.032 49.4636 103.742 50.483C102.46 51.4943 100.891 52 99.0331 52C97.1103 52 95.5446 51.6117 94.3357 50.8349C93.135 50.0501 92.2183 48.9175 91.5854 47.4369C90.9608 45.9564 90.6484 44.3665 90.6484 42.6675C90.6484 40.8147 91.0013 39.2007 91.7072 37.8254C92.4211 36.4419 93.4311 35.3941 94.7373 34.682C96.0516 33.9621 97.4958 33.6021 99.0696 33.6021C100.854 33.6021 102.356 34.0551 103.572 34.9613C104.789 35.8675 105.637 37.1416 106.116 38.784L103.791 39.3302C103.378 38.0358 102.777 37.0932 101.99 36.5026C101.203 35.9119 100.213 35.6166 99.0209 35.6166C97.6499 35.6166 96.5019 35.9443 95.577 36.5997C94.6602 37.2549 94.0152 38.1369 93.6421 39.2453C93.2688 40.3456 93.0823 41.4821 93.0823 42.6553C93.0823 44.1683 93.3013 45.4911 93.7395 46.6239C94.1856 47.7484 94.8753 48.5897 95.8082 49.1479C96.7412 49.7062 97.7513 49.9854 98.8384 49.9854C100.161 49.9854 101.28 49.6052 102.197 48.8446C103.114 48.0842 103.734 46.9555 104.059 45.4588Z" fill="#282828"/>
<path d="M107.25 51.6966V33.9055H109.61V42.7282L118.47 33.9055H121.67L114.186 41.1142L121.999 51.6966H118.884L112.531 42.6918L109.61 45.5316V51.6966H107.25Z" fill="#282828"/>
</svg>
